<svg height="22" viewBox="0 0 24 22" width="24" xmlns="http://www.w3.org/2000/svg" xmlns:xlink="http://www.w3.org/1999/xlink"><mask id="a" fill="#fff"><path d="m23.9995.0001h-23.999v21.1019033h23.999z" fill="none"/></mask><path d="m23.0625 17.5528h-5.812v-1.314h5.812c.319 0 .562-.169.562-.469v-.939c0-.319-.243-.657-.562-.657-.019-5.82-4.687-10.738-10.688-10.926v-.526h1.313c.113 0 .187 0 .187-.094v-.75c0-1.033-.843-1.878-1.875-1.878-1.031 0-1.875.845-1.875 1.878v.75c0 .113.094.094.188.094h1.312v.526c-5.999.188-10.668 5.05-10.687 11.02-.319 0-.562.244-.562.563v.939c0 .3.243.469.562.469h5.813v1.314h-5.813c-.525 0-.937.507-.937 1.014v2.44c0 .113.093.094.187.094h23.625c.113 0 .187 0 .187-.094v-2.44c0-.507-.412-1.014-.937-1.014" fill="#fff" fill-rule="evenodd" mask="url(#a)"/></svg>