<svg width="30" height="10" viewBox="0 0 30 10" xmlns="http://www.w3.org/2000/svg"><title>icon_arrow-left</title><g transform="translate(0 -10)" fill="none" fill-rule="evenodd"><path d="M0 0H30V30H0z"/><path d="M.235 15.562A.781.781 0 0 1 0 15c0-.222.09-.421.235-.562l4.09-4.212a.734.734 0 0 1 1.06 0 .788.788 0 0 1 0 1.092l-2.824 2.91H29.25A.76.76 0 0 1 30 15a.761.761 0 0 1-.75.772H2.56l2.825 2.91a.788.788 0 0 1 0 1.092.736.736 0 0 1-1.06 0l-4.09-4.212z" fill-opacity=".5" fill="#171C12" fill-rule="nonzero"/></g></svg>