<svg height="34" viewBox="0 0 33 34" width="33" xmlns="http://www.w3.org/2000/svg" xmlns:xlink="http://www.w3.org/1999/xlink"><mask id="a" fill="#fff"><path d="m.00029872 34h11.67500128v-33.261h-11.67500128z" fill="none"/></mask><g fill="#fff" fill-rule="evenodd" transform="translate(0 -1)"><path d="m32.3499 32.7079s0-9.366-.004-10.298c.004-.85-.029-21.261-.029-21.261l-.567-.002s-4.631 2.144-4.63 18.045c3.557.801 2.06 3.991 1.791 4.396 0 .81.076 9.124.076 9.124l.011-.002c-.004.009-.008.016-.007.027-.005.764.751 1.384 1.678 1.378.924.002 1.682-.619 1.679-1.378.003-.007.003-.018-.003-.023z"/><path d="m22.1379 1.7345-1.007-.001.298 8.651-1.209-.002v-8.65l-.883.002v8.704h-1.003v-8.705l-.973.001-.003 8.704h-1.186l.339-8.707h-.917l-1.117 7.364s-.027.277-.027.382c0 1.136.642 2.152 1.645 2.812 3.306 3.063 1.049 6.186 1.049 6.929.003.821.003 13.466.003 13.466h.002c0 .01-.004.017-.005.029.001.775.767 1.401 1.71 1.403.944 0 1.712-.63 1.712-1.402-.001-.013-.006-.021-.006-.021l.002-.006s.003-12.489.003-13.443c-.003-.86-1.91-4.454 1.279-7.124.002-.004.009-.011.014-.017.778-.604 1.29-1.438 1.369-2.374.005-.066.002-.232.002-.232z"/><path d="m5.8853.7405v-.002h-.097v.002c-3.702.049-5.788 2.958-5.788 6.12-.002 3.189 2.335 5.464 4.372 5.969 1.116 1.283.381 4.316-.408 6.065v13.656h.004c-.002.009-.004.019-.004.029 0 .784.774 1.421 1.732 1.421h.282c.957 0 1.732-.637 1.732-1.421 0-.01-.002-.02-.004-.029h.004v-13.656c-.789-1.749-1.524-4.782-.409-6.065 2.038-.505 4.372-2.78 4.374-5.969 0-3.162-2.087-6.071-5.79-6.12" mask="url(#a)" transform="translate(0 .2615)"/></g></svg>